# xmcd
#
# Track frame offsets:
#	150
#	13543
#	17442
#	35133
#	52667
#	70402
#	86004
#	100998
#	114567
#	138370
#	165234
#
# Disc length: 2524 seconds
#
# Revision: 1
# Processed by: cddbd v1.5.2PL0 Copyright (c) Steve Scherf et al.
# Submitted via: audiograbber 1.83.01
#
DISCID=8209da0b
DTITLE=Nadine Khouri - Cuts from the Inside
DYEAR=2005
DGENRE=Folk-Rock
TTITLE0=Number One Boy
TTITLE1=[Carmina]
TTITLE2=Underground
TTITLE3=Bliss
TTITLE4=Midnight Prayer
TTITLE5=Hey My Baby
TTITLE6=Wail
TTITLE7=One Flesh
TTITLE8=All This Violence
TTITLE9=Butterfly
TTITLE10=What Of
EXTD=
EXTT0=
EXTT1=
EXTT2=
EXTT3=
EXTT4=
EXTT5=
EXTT6=
EXTT7=
EXTT8=
EXTT9=
EXTT10=
PLAYORDER=
